<svg width="604" height="293" viewBox="0 0 604 293" fill="none" xmlns="http://www.w3.org/2000/svg">
<g clip-path="url(#clip0_1342_132)">
<path d="M596.198 0.0200195H7.80163C3.49749 0.0200195 0.00830078 3.50921 0.00830078 7.81335V284.477C0.00830078 288.781 3.49749 292.27 7.80163 292.27H596.198C600.502 292.27 603.992 288.781 603.992 284.477V7.81335C603.992 3.50921 600.502 0.0200195 596.198 0.0200195Z" fill="#F3F4F6"/>
<path d="M45.7942 55.5475C45.7942 50.1674 50.1557 45.8058 55.5359 45.8058H601.069V283.503C601.069 286.731 598.453 289.348 595.224 289.348H45.7942V55.5475Z" fill="white"/>
<path d="M84.7607 104.256C95.521 104.256 104.244 95.5329 104.244 84.7725C104.244 74.0122 95.521 65.2892 84.7607 65.2892C74.0003 65.2892 65.2773 74.0122 65.2773 84.7725C65.2773 95.5329 74.0003 104.256 84.7607 104.256Z" fill="#828282"/>
<path d="M577.689 80.8759H536.774C534.622 80.8759 532.877 82.6205 532.877 84.7725C532.877 86.9246 534.622 88.6692 536.774 88.6692H577.689C579.841 88.6692 581.586 86.9246 581.586 84.7725C581.586 82.6205 579.841 80.8759 577.689 80.8759Z" fill="#BDBDBD"/>
<path d="M519.239 80.8759H478.324C476.172 80.8759 474.427 82.6205 474.427 84.7725C474.427 86.9246 476.172 88.6692 478.324 88.6692H519.239C521.391 88.6692 523.136 86.9246 523.136 84.7725C523.136 82.6205 521.391 80.8759 519.239 80.8759Z" fill="#BDBDBD"/>
<path d="M460.789 80.8759H419.874C417.722 80.8759 415.978 82.6205 415.978 84.7725C415.978 86.9246 417.722 88.6692 419.874 88.6692H460.789C462.941 88.6692 464.686 86.9246 464.686 84.7725C464.686 82.6205 462.941 80.8759 460.789 80.8759Z" fill="#828282"/>
<path d="M578.663 123.739H71.1225C69.5084 123.739 68.2 125.048 68.2 126.662V257.2C68.2 258.814 69.5084 260.123 71.1225 260.123H578.663C580.277 260.123 581.586 258.814 581.586 257.2V126.662C581.586 125.048 580.277 123.739 578.663 123.739Z" fill="#E0E0E0"/>
<path d="M399.417 167.577H107.167V187.06H399.417V167.577Z" fill="#BDBDBD"/>
<path d="M350.708 196.802H107.167V216.285H350.708V196.802Z" fill="#BDBDBD"/>
</g>
<defs>
<clipPath id="clip0_1342_132">
<rect width="603.983" height="292.25" fill="white" transform="translate(0.00830078 0.0200195)"/>
</clipPath>
</defs>
</svg>
