<svg width="33" height="38" viewBox="0 0 33 38" fill="none" xmlns="http://www.w3.org/2000/svg">
<path fill-rule="evenodd" clip-rule="evenodd" d="M22.1454 1.31421C21.996 1.01266 21.7846 0.746613 21.5252 0.533735C21.2659 0.320857 20.9646 0.166028 20.6413 0.0795372C20.318 -0.00695348 19.9802 -0.0231245 19.6502 0.0320985C19.3202 0.0873214 19.0057 0.212673 18.7275 0.399824C17.9143 0.94608 17.2802 1.72509 16.7899 2.48985C16.2855 3.2736 15.84 4.18324 15.4464 5.14037C14.6591 7.04989 13.9991 9.33941 13.4664 11.6337C12.8221 14.4374 12.3397 17.2763 12.0214 20.1363C11.0624 19.5133 10.2918 18.6366 9.79394 17.6021C9.02079 15.9871 8.85579 13.9588 8.85579 11.2988C8.85569 10.8291 8.7174 10.3701 8.45838 9.97958C8.19937 9.5891 7.83127 9.28477 7.40062 9.10505C6.96997 8.92533 6.49611 8.8783 6.03893 8.9699C5.58176 9.0615 5.1618 9.28762 4.83215 9.61967C3.29804 11.1621 2.08143 12.9947 1.25219 15.0122C0.422949 17.0297 -0.00258841 19.1924 1.18449e-05 21.376C0.000207631 24.11 0.669549 26.8017 1.94875 29.2127C3.22795 31.6238 5.07753 33.6797 7.33367 35.1985C9.5898 36.7173 12.1829 37.6521 14.8832 37.92C17.5834 38.1879 20.3076 37.7807 22.8144 36.7344C25.3212 35.6882 27.5333 34.0351 29.2546 31.9218C30.976 29.8084 32.1535 27.3 32.6829 24.6186C33.2123 21.9372 33.0772 19.1656 32.2897 16.5494C31.5021 13.9331 30.0864 11.553 28.1679 9.61967C26.7724 8.21603 25.8579 7.28027 24.9904 6.13551C24.1348 5.005 23.2839 3.61086 22.1454 1.31421ZM21.4971 31.1611C20.5082 32.1563 19.2488 32.8339 17.8779 33.1083C16.507 33.3827 15.0861 33.2416 13.7947 32.7029C12.5034 32.1641 11.3994 31.2518 10.6223 30.0813C9.84521 28.9107 9.42981 27.5344 9.42858 26.1261C9.42858 26.1261 11.5005 27.3136 15.3214 27.3136C15.3214 24.9386 16.5 17.8135 18.2679 16.626C19.4464 19.001 20.1206 19.6969 21.4995 21.0887C22.1572 21.7493 22.6789 22.5345 23.0345 23.399C23.39 24.2635 23.5725 25.1903 23.5714 26.1261C23.5725 27.0619 23.39 27.9887 23.0345 28.8532C22.6789 29.7177 22.1572 30.5028 21.4995 31.1635L21.4971 31.1611Z" fill="black"/>
</svg>
