<svg width="182" height="30" viewBox="0 0 182 30" fill="none" xmlns="http://www.w3.org/2000/svg">
<g clip-path="url(#clip0_1342_129)">
<path fill-rule="evenodd" clip-rule="evenodd" d="M1.92334 0.276978V29.0468H21.0491V22.9984H9.03434V0.276978H1.92334ZM22.1785 8.5499V21.0549C22.1785 22.0304 22.2732 23.0089 22.447 23.8488C22.621 24.6887 22.8722 25.3901 23.178 25.9959C23.4828 26.6025 23.8411 27.1119 24.253 27.5514C24.6648 27.991 25.1292 28.3589 25.6614 28.6646C26.1937 28.9704 26.7956 29.2141 27.4941 29.3822C29.1032 29.7587 31.0057 29.7491 32.761 29.1939C33.5922 28.9374 34.3724 28.538 35.0666 28.0139C35.2893 27.8439 35.4651 27.6853 35.6247 27.5132L35.9925 29.066H42.1222V8.55086H35.0523V20.6889C35.0523 21.0873 35.0208 21.4867 34.9634 21.8317C34.9052 22.1756 34.8229 22.4671 34.7236 22.7174C34.6354 22.9449 34.5213 23.1613 34.3834 23.3624C34.2564 23.5439 34.1159 23.6987 33.9621 23.8307C33.8092 23.9635 33.641 24.0742 33.4565 24.1651C33.061 24.3619 32.587 24.4489 32.1074 24.4489C31.8522 24.4489 31.5942 24.4239 31.363 24.3743C31.1462 24.3303 30.9355 24.2594 30.7362 24.1631C30.5523 24.0738 30.3803 23.9618 30.224 23.8297C30.0692 23.6968 29.9278 23.543 29.8007 23.3614C29.6736 23.1799 29.558 22.9697 29.4587 22.7194C29.3472 22.4338 29.2666 22.1371 29.2179 21.8346C29.1569 21.4557 29.1268 21.0725 29.128 20.6889V8.5499H22.1785ZM43.2726 8.49161V13.232H46.1335V29.0468H53.0811V13.232H57.0857V8.49161H53.0811V7.75587C53.0811 7.50074 53.0954 7.24561 53.1212 7.04208C53.1461 6.83855 53.1804 6.68758 53.2205 6.55859C53.3218 6.25856 53.4213 6.03687 53.7395 5.78557C53.8207 5.72538 53.9133 5.669 54.0233 5.6174C54.1331 5.56581 54.263 5.51803 54.4332 5.47216C54.6042 5.42725 54.8144 5.38425 55.1479 5.35273C55.7107 5.29443 56.5544 5.30303 57.2902 5.30303V0.317109H55.124C53.9726 0.317109 52.8192 0.373489 51.9737 0.469042C51.127 0.564595 50.5882 0.694542 50.1448 0.834048C49.7014 0.973555 49.3536 1.12262 49.0497 1.28793C48.7459 1.45323 48.4851 1.63287 48.2509 1.83258C48.0159 2.03133 47.8085 2.25013 47.6174 2.49763C47.4264 2.7451 47.2524 3.02124 47.0918 3.3423C46.9313 3.66335 46.7852 4.03123 46.6532 4.47268C46.5214 4.91414 46.4048 5.42916 46.3141 6.08369C46.2058 6.88197 46.1461 7.68609 46.1355 8.49161H43.2726ZM57.8788 8.53269V13.2731H60.6574V22.1413C60.6574 22.9095 60.6938 23.6787 60.7578 24.2941C60.8218 24.9084 60.9126 25.3671 61.0129 25.7483C61.1133 26.1296 61.225 26.4353 61.3483 26.6991C61.4706 26.9629 61.6043 27.1864 61.7506 27.3852C62.0366 27.778 62.4059 28.1026 62.8322 28.3359C63.0605 28.464 63.3204 28.5787 63.6415 28.6809C63.9635 28.7832 64.3477 28.8758 64.8819 28.9417C65.416 29.0077 66.102 29.0459 66.7863 29.0459H71.8132V24.2644H70.8328C70.2929 24.2644 69.7521 24.2491 69.3909 24.2233C69.0297 24.1975 68.8491 24.1623 68.7058 24.125C68.3972 24.039 68.2166 23.9817 67.9844 23.7313C67.845 23.5612 67.8019 23.4437 67.7407 23.2507C67.686 23.0552 67.653 22.8542 67.6424 22.6515C67.6141 22.2088 67.6012 21.765 67.604 21.3214V13.2731H71.4864V8.53269H67.604V1.99406H60.6565V8.53269H57.8788ZM73.0018 0.276978V29.0468H79.9495V17.3598C79.9495 16.8773 80.0087 16.3938 80.1234 15.9599C80.239 15.5262 80.4071 15.142 80.6154 14.8115C80.8237 14.4818 81.0732 14.2056 81.3502 13.984C81.9044 13.5432 82.5935 13.3067 83.3015 13.3141C83.5098 13.3132 83.719 13.3294 83.9034 13.3581C84.4423 13.4575 84.9239 13.5989 85.4046 14.2372C85.4935 14.3604 85.5756 14.5009 85.6521 14.6672C85.7285 14.8344 85.7992 15.0264 85.8622 15.2616C85.9244 15.4955 85.9798 15.7718 86.0189 16.1215C86.0581 16.4712 86.0801 16.8954 86.0801 17.3188V29.0468H93.0278V16.2973C93.0278 15.3264 92.9359 14.3538 92.7649 13.5253C92.6216 12.7958 92.3819 12.0885 92.0521 11.4222C91.7807 10.8708 91.4293 10.3624 91.0096 9.91343C90.6078 9.48653 90.1439 9.12254 89.6338 8.83369C89.0651 8.51346 88.4533 8.2769 87.8173 8.13139C87.0604 7.95885 86.286 7.8742 85.5097 7.87912C85.038 7.87455 84.5667 7.90393 84.0994 7.96703C83.6597 8.02723 83.2671 8.11706 82.8906 8.23076C82.514 8.34447 82.1539 8.48301 81.6999 8.76776C81.2461 9.05251 80.6977 9.48441 80.197 9.96217L79.9514 10.1256V0.276978H73.0018ZM102.098 15.1326C102.128 14.8487 102.179 14.5678 102.235 14.3356C102.293 14.1034 102.358 13.919 102.429 13.7613C102.592 13.3667 102.922 12.9768 103.222 12.7857C103.476 12.6172 103.758 12.494 104.054 12.4217C104.228 12.3758 104.424 12.3376 104.654 12.3108C105.217 12.2472 105.786 12.261 106.345 12.3519C106.632 12.4026 106.882 12.4771 107.097 12.5679C107.312 12.6577 107.49 12.7638 107.64 12.8765C108.233 13.3591 108.341 13.833 108.229 14.3719C108.173 14.564 108.065 14.7503 107.841 14.9443C107.728 15.0398 107.585 15.1326 107.369 15.249C107.152 15.3648 106.866 15.5051 105.958 15.7058C105.051 15.9075 103.524 16.1683 102.337 16.4109C101.151 16.6518 100.299 16.8734 99.6505 17.0798C98.9987 17.2853 98.5477 17.4764 98.1684 17.6589C97.7882 17.8415 97.4814 18.0153 97.2129 18.1892C96.9444 18.3631 96.7132 18.5361 96.5039 18.7157C94.8126 20.2493 94.6283 21.6502 94.5795 23.1827C94.5757 23.8392 94.6818 24.4947 94.8987 25.1263C95.1155 25.7579 95.4394 26.3647 95.8781 26.9228C96.3392 27.5063 96.8928 28.0105 97.5168 28.4152C98.8049 29.2819 100.593 29.7444 102.242 29.7615C103.061 29.7758 103.822 29.6928 104.578 29.5342C105.336 29.3756 106.088 29.1395 106.814 28.8223C107.599 28.4783 108.361 28.0474 109.046 27.5151L109.537 29.0679H115.707C115.571 28.7684 115.452 28.4616 115.351 28.1486C115.268 27.8917 115.237 27.713 115.212 27.4846C115.187 27.2562 115.177 26.9763 115.177 26.6982V18.3202C115.177 16.7721 115.139 15.2185 115.044 14.2037C114.946 13.189 114.811 12.7122 114.664 12.2956C114.388 11.4886 113.944 10.7494 113.361 10.1265C113.027 9.76293 112.653 9.4388 112.245 9.16049C111.752 8.8289 111.221 8.55569 110.665 8.34637C110.042 8.10653 109.31 7.90014 108.423 7.75587C107.536 7.61158 106.493 7.5294 105.493 7.53131C104.55 7.52916 103.608 7.61134 102.679 7.77688C101.821 7.9355 101.056 8.16864 100.384 8.44862C99.7655 8.70296 99.1781 9.02775 98.6338 9.41656C98.1603 9.75445 97.7296 10.1488 97.3515 10.5909C96.995 11.0113 96.7037 11.4595 96.4704 11.9353C95.9851 12.9186 95.7614 14.026 95.7653 15.1326H102.098ZM108.259 22.534C108.135 22.8684 107.953 23.1895 107.706 23.4799C107.462 23.7723 107.156 24.0341 106.8 24.2529C106.421 24.4804 106.011 24.6514 105.583 24.7604C104.891 24.9342 104.113 25.0088 103.322 24.8559C103.075 24.8067 102.836 24.7297 102.607 24.6265C102.409 24.5367 102.222 24.422 102.053 24.2855C101.534 23.8516 101.381 23.3797 101.373 22.9249C101.37 22.7584 101.382 22.5921 101.409 22.4279C101.472 22.0677 101.586 21.827 101.855 21.5622C101.937 21.4828 102.036 21.4018 102.168 21.3167C102.299 21.2297 102.464 21.1389 102.7 21.0242C102.939 20.9096 103.251 20.7719 104.22 20.4749C105.187 20.1768 106.812 19.72 108.443 19.2967V21.5039C108.443 21.8554 108.38 22.2041 108.259 22.534ZM117.426 29.0478H124.374V16.9508C124.374 16.5113 124.413 16.0699 124.487 15.6934C124.549 15.3636 124.653 15.0431 124.797 14.7398C124.924 14.4732 125.073 14.2506 125.241 14.0623C125.41 13.8741 125.596 13.7193 125.809 13.5912C126.227 13.3285 126.815 13.1976 127.373 13.1918C127.651 13.189 127.905 13.2157 128.133 13.2645C128.36 13.3132 128.56 13.3829 128.741 13.4728C128.922 13.5616 129.086 13.6686 129.236 13.7976C129.386 13.9266 129.52 14.0767 129.643 14.2553C129.769 14.435 129.878 14.6414 129.976 14.8898C130.073 15.1383 130.156 15.4277 130.211 15.7793C130.269 16.1301 130.301 16.541 130.301 16.9519V29.0487H137.247V15.8062C137.247 14.9519 137.154 14.0967 136.977 13.339C136.82 12.6427 136.568 11.9711 136.229 11.3429C135.93 10.791 135.553 10.2848 135.111 9.83986C134.682 9.41076 134.194 9.04609 133.66 8.75725C133.09 8.44794 132.48 8.21808 131.847 8.07405C130.165 7.69567 128.242 7.72719 126.474 8.44671C125.693 8.76257 124.971 9.20591 124.335 9.75864C124.159 9.90889 123.995 10.0731 123.844 10.2498V8.53365H117.428V29.0478H117.426ZM138.222 21.8756C138.194 22.1632 138.179 22.3438 138.181 22.5703C138.187 23.7876 138.479 25.0174 139.371 26.227C139.644 26.594 139.969 26.9466 140.355 27.282C140.741 27.6192 141.191 27.9384 141.714 28.2327C142.236 28.5271 142.833 28.7956 143.509 29.0239C144.245 29.2693 145.001 29.4512 145.769 29.5677C146.595 29.6965 147.497 29.7673 148.455 29.7615C149.421 29.7578 150.385 29.6787 151.337 29.5246C152.158 29.3916 152.963 29.1758 153.74 28.8806C154.376 28.6396 154.982 28.3281 155.548 27.9518C156.064 27.6059 156.499 27.2275 156.864 26.8234C157.23 26.4191 157.528 25.9892 157.767 25.5306C158.582 23.9309 158.728 22.1441 158.163 20.2685C157.876 19.3957 157.355 18.6184 156.657 18.021C156.459 17.8491 156.241 17.6828 155.992 17.5195C155.741 17.356 155.456 17.1926 155.106 17.0225C154.668 16.8108 154.214 16.6322 153.749 16.4883C153.16 16.3021 152.396 16.1043 151.312 15.8893C150.227 15.6742 148.824 15.4441 147.987 15.2644C147.151 15.0838 146.882 14.9548 146.678 14.8458C146.52 14.7649 146.37 14.6675 146.232 14.5554C145.775 14.1349 145.764 13.7604 145.887 13.3323C145.966 13.1097 146.117 12.8813 146.419 12.6634C146.558 12.5641 146.725 12.4733 146.921 12.3959C147.142 12.3113 147.371 12.2496 147.604 12.2115C147.862 12.1675 148.151 12.1417 148.462 12.1474C148.773 12.1522 149.108 12.1876 149.399 12.2545C149.686 12.3223 149.926 12.4236 150.134 12.5488C150.553 12.8005 150.876 13.1839 151.054 13.639C151.187 13.9467 151.23 14.3184 151.299 14.6815H157.674V14.0681C157.675 13.5302 157.619 12.9938 157.503 12.4685C157.398 11.9898 157.233 11.5264 157.01 11.0897C156.795 10.6683 156.527 10.2763 156.211 9.92298C155.89 9.56371 155.514 9.2331 155.064 8.9302C154.615 8.6273 154.093 8.35307 153.472 8.1161C152.853 7.87818 152.132 7.67847 151.283 7.53991C150.434 7.40137 149.456 7.32301 148.482 7.32491C147.535 7.32453 146.591 7.40317 145.658 7.55998C144.856 7.69623 144.069 7.91229 143.31 8.20496C142.68 8.44828 142.079 8.76107 141.519 9.13755C141.041 9.45831 140.603 9.83597 140.216 10.2622C139.867 10.6463 139.568 11.0733 139.328 11.533C138.558 13.0609 138.384 14.7302 138.96 16.4883C139.224 17.1973 139.647 17.9063 140.528 18.5982C140.743 18.7654 140.982 18.9279 141.268 19.0903C141.554 19.2527 141.885 19.4151 142.319 19.5948C142.75 19.7744 143.281 19.9732 144.335 20.2092C145.388 20.4452 146.968 20.7147 148.017 20.9287C149.067 21.1427 149.586 21.2986 149.946 21.4304C150.305 21.5641 150.506 21.673 150.664 21.7754C151.429 22.2903 151.464 22.7652 151.396 23.3128C151.342 23.5765 151.234 23.8277 150.979 24.0829C150.901 24.1603 150.809 24.2358 150.702 24.3075C150.582 24.3871 150.457 24.4565 150.326 24.5148C150.164 24.5851 149.997 24.6436 149.826 24.6896C149.359 24.8062 148.88 24.8627 148.399 24.8578C147.997 24.8587 147.598 24.8186 147.251 24.747C146.904 24.6753 146.613 24.5712 146.358 24.4469C146.104 24.3227 145.888 24.1755 145.703 24.0094C145.519 23.8448 145.359 23.6554 145.227 23.4465C144.941 22.9965 144.794 22.4355 144.761 21.8747L138.222 21.8756ZM167.081 15.1326C167.111 14.8487 167.16 14.5678 167.219 14.3356C167.276 14.1034 167.342 13.919 167.412 13.7613C167.575 13.3667 167.904 12.9768 168.203 12.7857C168.458 12.6178 168.74 12.4947 169.036 12.4217C169.212 12.3758 169.405 12.3376 169.635 12.3108C170.198 12.2472 170.767 12.261 171.326 12.3519C171.613 12.4026 171.863 12.4771 172.081 12.5679C172.295 12.6577 172.474 12.7638 172.623 12.8765C173.215 13.3591 173.322 13.833 173.21 14.3719C173.156 14.564 173.048 14.7503 172.824 14.9443C172.679 15.0615 172.522 15.1638 172.357 15.2501C172.141 15.3656 171.857 15.5061 170.953 15.7087C170.052 15.9103 168.532 16.175 167.345 16.4186C166.157 16.6623 165.299 16.8849 164.646 17.0922C164.134 17.25 163.636 17.4449 163.152 17.6752C162.822 17.8323 162.502 18.01 162.196 18.2074C161.948 18.3666 161.711 18.5425 161.486 18.7339C159.797 20.2627 159.613 21.6568 159.564 23.1818C159.559 23.8431 159.667 24.5002 159.882 25.1254C160.098 25.757 160.422 26.3637 160.86 26.9217C161.299 27.4797 161.849 27.9881 162.501 28.4143C163.798 29.2867 165.581 29.7472 167.233 29.7596C168.062 29.773 168.839 29.6852 169.614 29.5161C170.391 29.3468 171.17 29.0965 171.886 28.7802C172.65 28.4479 173.369 28.0223 174.028 27.5132L174.519 29.066H180.691C180.557 28.7718 180.436 28.4711 180.331 28.1649C180.26 27.9568 180.215 27.7408 180.194 27.5218C180.169 27.2474 180.157 26.9718 180.159 26.6963V18.3182C180.159 16.7387 180.126 15.1535 180.029 14.1292C179.933 13.1058 179.794 12.6443 179.645 12.2401C179.367 11.4474 178.92 10.7237 178.338 10.1179C177.994 9.75303 177.609 9.42831 177.192 9.14997C176.685 8.81731 176.143 8.54293 175.575 8.33204C174.939 8.09316 174.201 7.88963 173.327 7.74821C172.454 7.6068 171.442 7.5275 170.459 7.5294C169.518 7.52844 168.581 7.6106 167.655 7.77497C166.795 7.93264 166.032 8.16387 165.362 8.44194C164.745 8.69515 164.159 9.01798 163.615 9.40414C163.144 9.74066 162.715 10.1334 162.339 10.5737C161.98 10.9932 161.688 11.4413 161.455 11.9172C160.969 12.9033 160.745 14.0184 160.749 15.1315L167.081 15.1326ZM173.223 22.534C173.1 22.8684 172.915 23.1895 172.671 23.4799C172.426 23.7723 172.121 24.0341 171.764 24.2529C171.385 24.4804 170.975 24.6514 170.548 24.7604C169.855 24.9342 169.076 25.0088 168.286 24.8559C168.04 24.8068 167.799 24.73 167.571 24.6265C167.372 24.5367 167.186 24.422 167.017 24.2855C166.514 23.8622 166.343 23.3968 166.337 22.9343C166.335 22.7684 166.349 22.6026 166.372 22.4385C166.437 22.0782 166.555 21.8278 166.834 21.5574C166.919 21.4753 167.021 21.3922 167.158 21.3024C167.295 21.2144 167.463 21.1208 167.711 21.0022C167.957 20.8847 168.28 20.7433 169.241 20.4491C170.203 20.1548 171.802 19.7094 173.406 19.2967V21.5039C173.406 21.8508 173.346 22.1995 173.223 22.534Z" fill="#9CA3AF"/>
</g>
<defs>
<clipPath id="clip0_1342_129">
<rect width="181.34" height="29.4862" fill="white" transform="translate(0.660156 0.276978)"/>
</clipPath>
</defs>
</svg>
