<svg width="132" height="41" viewBox="0 0 132 41" fill="none" xmlns="http://www.w3.org/2000/svg">
<g clip-path="url(#clip0_1342_117)">
<path fill-rule="evenodd" clip-rule="evenodd" d="M130.592 39.2508V0.789307H90.4857V39.2508H130.592ZM121.452 11.8349C118.363 10.0596 115.272 9.13905 112.379 9.13905C109.29 9.13905 106.725 10.1253 104.753 12.0977C102.715 14.0045 101.663 16.3712 101.663 19.3299C101.663 22.1564 102.715 24.5888 104.688 26.5627C106.791 28.4024 109.29 29.3236 112.314 29.3236C115.536 29.3236 118.691 28.3373 121.782 26.3642V30.5068C118.888 32.0844 115.666 32.8736 112.116 32.8736C109.092 32.8736 106.593 32.2822 104.489 31.0988C102.475 29.8724 100.784 28.1812 99.5581 26.167C98.3747 23.9332 97.7171 21.6972 97.7171 19.3299C97.7171 15.3849 99.0975 12.1634 101.925 9.53326C104.687 6.90309 108.106 5.52264 112.116 5.52264C115.009 5.52264 118.099 6.24608 121.452 7.75792L121.452 11.8349ZM86.0158 0.789307H45.9097V39.2508H86.0158V0.789307ZM58.2043 6.50888H65.1737C67.4089 6.50888 69.1192 6.77169 70.3669 7.36371C71.6166 8.02143 72.5364 8.80984 73.1292 9.79677C73.7855 10.8487 74.1154 12.032 74.1154 13.4125C74.1154 16.0419 72.8 17.883 70.0383 19.0013C72.0107 19.3299 73.5884 20.119 74.7067 21.4338C75.8237 22.617 76.3506 24.1296 76.4157 25.8385C76.3506 27.1539 76.0214 28.4024 75.3644 29.455C74.6403 30.5068 73.6541 31.3624 72.2737 32.0852C70.8932 32.7428 69.2492 33.0713 67.2111 33.0713H58.2043V6.50888Z" fill="#9CA3AF"/>
<path fill-rule="evenodd" clip-rule="evenodd" d="M64.5154 17.8838C66.553 17.8838 67.9998 17.4895 68.8547 16.7661C69.7094 15.9113 70.1687 14.925 70.1687 13.676C70.1687 11.1779 68.5261 9.86248 65.3039 9.86248H62.0174V17.8838H64.5154ZM65.5674 21.3024H62.0174V29.6513H65.831C67.6056 29.6513 69.0524 29.5207 69.9722 29.2572C70.8271 28.7965 71.4191 28.271 71.8133 27.6796C72.2076 27.0219 72.471 26.2992 72.471 25.5101C72.4047 24.7208 72.2076 23.9968 71.747 23.3405C71.3527 22.6164 70.6958 22.0907 69.7745 21.7616C68.921 21.4338 67.4742 21.2365 65.5674 21.3024ZM41.3067 0.789307H1.20044V39.2508H41.3067V0.789307ZM13.4301 33.0707V6.50888H20.3994C22.6347 6.50888 24.2787 6.77169 25.5276 7.36371C26.7767 7.95503 27.763 8.80986 28.355 9.86178C29.0119 10.848 29.3411 12.0314 29.4068 13.4118C29.3411 16.0413 28.0264 17.8824 25.2648 19.0656C27.303 19.3948 28.8148 20.1833 29.9331 21.4324C31.0508 22.6156 31.6428 24.1282 31.6428 25.8372C31.6428 27.2176 31.3144 28.4673 30.5908 29.4536C29.8674 30.5705 28.8813 31.4261 27.5665 32.0838C26.1861 32.7415 24.4764 33.0699 22.4382 33.0699L13.4301 33.0707Z" fill="#9CA3AF"/>
<path fill-rule="evenodd" clip-rule="evenodd" d="M20.5304 9.86243H17.2432V17.8837H19.8069C21.7793 17.8837 23.2255 17.4894 24.081 16.766C24.9352 15.9769 25.3958 14.925 25.3958 13.7416C25.395 11.1772 23.7518 9.86243 20.5304 9.86243ZM20.7932 21.3023H17.2432V29.6514H20.9902C22.9627 29.6514 24.4089 29.5206 25.2636 29.2571C25.9872 28.9286 26.5784 28.468 27.0384 27.8103C27.4333 27.0875 27.6304 26.3634 27.6961 25.51C27.6304 24.5888 27.3669 23.866 26.9727 23.3405C26.5215 22.6125 25.8201 22.0743 25.0002 21.8272C24.0804 21.4337 22.6342 21.3023 20.7932 21.3023Z" fill="#9CA3AF"/>
</g>
<defs>
<clipPath id="clip0_1342_117">
<rect width="130.769" height="40" fill="white" transform="translate(0.94043 0.0200195)"/>
</clipPath>
</defs>
</svg>
