<svg width="101" height="41" viewBox="0 0 101 41" fill="none" xmlns="http://www.w3.org/2000/svg">
<g clip-path="url(#clip0_1342_125)">
<path fill-rule="evenodd" clip-rule="evenodd" d="M5.98768 25.246C6.40144 25.0388 6.50444 24.6262 6.50444 24.2125V15.0174C6.50444 14.7072 6.40085 14.1905 5.98768 13.9839H10.3277C12.2906 13.9839 14.2534 14.8108 14.2534 17.0832C14.2534 18.2197 13.2205 19.1497 12.084 19.3563C13.7373 19.3563 15.1834 20.2862 15.1834 22.0424C15.1834 24.6256 12.6002 25.2454 10.7403 25.2454L5.98768 25.246ZM9.50079 15.0174H8.77804V18.9431H9.29421C10.6373 18.9431 11.8774 18.5299 11.8774 16.9796C11.8774 15.4306 10.8439 15.0174 9.50079 15.0174ZM9.81096 19.9766H8.77804V24.1095C9.29421 24.2125 9.81096 24.2125 10.3277 24.2125C11.4642 24.2125 12.6008 23.7999 12.6008 22.043C12.6008 20.3898 11.2577 19.9766 9.81096 19.9766ZM19.5234 15.0174H19.0066V18.9431H19.5234C20.7635 18.9431 21.6934 18.2197 21.6934 16.8766C21.6934 15.5336 20.7629 15.0174 19.5234 15.0174ZM25.2059 25.3496C24.7922 25.3496 24.276 25.3496 23.8634 25.1424C23.1401 24.9352 22.1066 23.2825 21.6934 22.5592C20.9701 21.5257 20.4539 19.976 19.0072 19.976V24.2119C19.0072 24.6256 19.1102 25.0382 19.524 25.2454H16.1145C16.5276 25.0382 16.6312 24.6256 16.6312 24.2119V15.0174C16.6312 14.7072 16.5276 14.1905 16.1145 13.9839H20.2473C22.003 13.9839 24.173 14.7072 24.173 16.8766C24.173 18.6335 22.7263 19.5628 21.0731 19.5628C23.3467 19.5628 24.7922 25.0382 27.376 25.0382C26.6708 25.2432 25.9403 25.348 25.2059 25.3496ZM27.479 25.246C27.7885 25.143 28.0987 24.7292 28.0987 24.2125V15.0174C28.0987 14.5006 27.7885 14.1905 27.479 13.9839H30.9915C30.6819 14.191 30.3717 14.5006 30.3717 15.0174V24.2125C30.3717 24.7292 30.6819 25.143 30.9915 25.246H27.479ZM35.0214 25.246C35.3315 25.0388 35.5381 24.6262 35.5381 24.2125V15.327H33.0585C32.4387 15.327 31.8184 15.43 31.3022 15.6371L32.1286 13.9839H40.2913C40.9111 13.9839 41.6344 13.9839 42.2542 13.8803C41.944 14.7072 41.0147 15.327 40.4979 15.327H37.8117V24.2125C37.8117 24.6262 38.0183 25.0388 38.432 25.246H35.0214ZM42.6667 25.246C42.9769 25.143 43.2871 24.7292 43.2871 24.2125V15.0174C43.2871 14.5006 42.9769 14.1905 42.6667 13.9839H46.1799C45.8697 14.191 45.5595 14.5006 45.5595 15.0174V24.2125C45.5595 24.7292 45.8697 25.143 46.1799 25.246H42.6667ZM52.8965 22.6628C52.8965 20.5969 47.8331 20.0802 47.8331 16.6706C47.8331 14.6042 49.7966 13.8809 51.5534 13.8809C52.3797 13.8809 53.5163 13.9845 54.2396 14.2946L54.3426 16.4646C53.93 15.5347 52.7929 14.8114 51.7594 14.8114C50.9331 14.8114 50.1067 15.2246 50.1067 16.1545C50.1067 18.3239 55.2731 18.9443 55.2731 22.1466C55.2731 24.4202 53.2067 25.4531 51.1402 25.4531C50.0043 25.4531 48.557 25.246 47.6271 24.6268C47.6271 24.213 47.5235 23.8005 47.5235 23.4897C47.5235 22.9741 47.6271 22.5604 47.7301 22.0436C48.2469 23.3867 49.3834 24.4202 50.9331 24.4202C51.966 24.419 52.8965 23.9029 52.8965 22.6628ZM63.6407 25.246C63.8478 25.143 64.1574 24.7292 64.1574 24.2125V20.0796C63.5377 19.9766 62.7113 19.9766 61.7808 19.9766C60.7485 19.9766 59.921 19.9766 59.3018 20.0796V24.2125C59.3018 24.7292 59.6114 25.143 59.8186 25.246H56.512C56.7192 25.143 57.0288 24.7292 57.0288 24.2125V15.0174C57.0288 14.5006 56.7192 14.1905 56.512 13.9839H59.8186C59.6114 14.191 59.3018 14.5006 59.3018 15.0174V18.8401C59.9216 18.8401 60.7491 18.9437 61.7808 18.9437C62.7113 18.9437 63.5377 18.8401 64.1574 18.8401V15.0174C64.1574 14.5006 63.8478 14.1905 63.6407 13.9839H66.9472C66.6376 14.191 66.4304 14.5006 66.4304 15.0174V24.2125C66.4304 24.7292 66.6376 25.143 66.9472 25.246H63.6407ZM10.3277 39.8146C10.4307 39.7104 10.5343 39.6074 10.5343 39.4008C10.5343 39.4008 10.4307 39.1937 10.4307 38.9871C10.4307 38.9871 9.50079 36.5081 9.39779 36.1979H5.26493C5.16134 36.5075 4.12842 38.9871 4.12842 38.9871C4.02483 39.2978 3.92183 39.4008 3.92183 39.505C3.92183 39.711 4.12842 39.711 4.232 39.8146H1.95898C2.28369 39.5928 2.56397 39.3121 2.78532 38.9871L6.40143 29.3788C6.50502 29.3788 6.50502 29.2758 6.50502 29.2758C6.50502 28.9651 6.29844 28.7591 6.09127 28.6549H8.98462L12.7038 38.9865C12.9109 39.4002 13.2205 39.6074 13.5307 39.814L10.3277 39.8146ZM7.33136 30.7219L5.6781 35.062C6.19485 35.165 6.71161 35.165 7.22777 35.165C7.74394 35.165 8.36428 35.165 8.98404 35.062L7.33136 30.7219ZM14.0468 39.8146C14.357 39.7104 14.6672 39.2978 14.6672 38.7811V29.586C14.6672 29.0692 14.357 28.7597 14.0468 28.6555H17.56C17.2498 28.7597 16.9396 29.0692 16.9396 29.586V38.7817C16.9396 39.2984 17.2498 39.711 17.56 39.8152L14.0468 39.8146ZM22.7263 29.586H22.2096V33.5123H22.7263C23.9664 33.5123 24.8958 32.8914 24.8958 31.4459C24.8958 30.1022 23.9658 29.586 22.7263 29.586ZM28.7185 39.9176C28.2023 39.9176 27.7885 39.9176 27.3754 39.8146C26.6526 39.505 25.5155 37.8512 25.1024 37.1272C24.482 36.0949 23.6557 34.5452 22.2096 34.5452V38.7811C22.2096 39.1937 22.3126 39.6074 22.7263 39.8146H19.3168C19.73 39.6074 19.8336 39.1937 19.8336 38.7811V29.586C19.8336 29.2764 19.73 28.7597 19.3168 28.6555H23.4497C25.2059 28.6555 27.376 29.2764 27.376 31.4459C27.376 33.2015 25.7227 34.132 24.5862 34.132C26.9628 34.2362 28.4089 39.608 30.7855 39.608C30.1652 39.8146 29.4418 39.9176 28.7185 39.9176ZM42.6667 29.6884L39.2572 39.8146C38.9471 39.8146 38.6369 39.7104 38.5339 39.6074C38.2243 39.2978 37.7075 37.9547 37.501 37.438L35.9507 33.5117L33.6777 39.8146H32.6447L28.8215 29.6884C28.7627 29.4684 28.6589 29.2629 28.5167 29.085C28.3745 28.9071 28.1969 28.7606 27.9951 28.6549H31.3011C31.1975 28.7591 31.0945 28.8621 31.0945 29.0687C31.0945 29.1717 31.0945 29.3782 31.1975 29.4812L33.6771 36.1979L36.2603 28.6549L39.153 35.8877L41.4261 29.2752C41.4261 29.1711 41.5297 29.0681 41.5297 28.9645C41.5297 28.7585 41.4261 28.7585 41.3225 28.6549H43.4925C43.291 28.7608 43.1135 28.9073 42.9714 29.0852C42.8293 29.2631 42.7256 29.4685 42.6667 29.6884ZM46.6966 30.7219L45.0439 35.062C45.5601 35.165 46.0769 35.165 46.5936 35.165C47.1104 35.165 47.7301 35.165 48.2469 35.062L46.6966 30.7219ZM49.5894 39.8146C49.7966 39.7104 49.7966 39.6074 49.7966 39.4008C49.7966 39.4008 49.7966 39.1937 49.693 38.9871C49.693 38.9871 48.8661 36.5081 48.6595 36.1979H44.6302C44.5272 36.5075 43.4937 38.9871 43.4937 38.9871C43.3901 39.2978 43.2871 39.4008 43.2871 39.505C43.2871 39.711 43.4937 39.711 43.5967 39.8146H41.3237C41.6338 39.6074 41.944 39.2978 42.047 38.9871L45.7667 29.3788L45.8703 29.2758C45.8703 28.9651 45.6637 28.7591 45.4571 28.6549H48.3499L52.069 38.9865C52.2762 39.4002 52.5857 39.6074 52.8965 39.814L49.5894 39.8146ZM59.7156 29.7914L57.1324 34.441V38.7811C57.1324 39.1937 57.2354 39.6074 57.5461 39.8146H54.342C54.6516 39.6074 54.7558 39.1937 54.7558 38.7811V34.441L52.4822 30.7219C52.275 30.4123 51.3462 28.7591 50.1056 28.7591C50.4151 28.6549 51.4487 28.4483 52.0684 28.4483C53.2055 28.4483 53.7223 28.5525 54.342 29.5854L56.5114 32.9949C56.7186 32.6842 58.3713 29.6884 58.3713 29.6884C58.5785 29.3788 58.682 29.0687 58.682 28.9651C58.682 28.8621 58.682 28.7591 58.4749 28.6555H60.8515C60.4383 28.8621 60.0257 29.3788 59.7156 29.7914ZM65.9143 37.2314C65.9143 35.165 60.9545 34.6482 60.9545 31.2387C60.9545 29.1723 62.9179 28.4483 64.6736 28.4483C65.4999 28.4483 66.637 28.5525 67.361 28.8621L67.4639 31.0315C67.0502 30.1022 65.9143 29.3788 64.8808 29.3788C64.0544 29.3788 63.2281 29.7914 63.2281 30.7219C63.2281 32.8914 68.2903 33.5123 68.2903 36.7146C68.2903 39.0912 66.3274 40.02 64.261 40.02C63.1251 40.02 61.6778 39.814 60.7485 39.1937C60.7485 38.7811 60.6443 38.4715 60.6443 38.0577C60.6443 37.541 60.7485 37.1272 60.7485 36.7146C61.3682 37.9547 62.5042 38.9871 63.9514 38.9871C65.0879 38.9871 65.9143 38.4715 65.9143 37.2314ZM96.1874 6.23485C94.2246 8.0947 90.0917 9.74797 88.1289 10.4713C85.3385 11.5049 84.0984 11.918 82.5487 12.4342C80.7931 12.951 77.2794 14.0875 77.2794 14.0875C84.5122 16.2569 89.6791 16.8772 89.6791 16.8772C89.6791 16.8772 92.0557 16.1545 95.8779 14.0875C97.9443 13.0539 98.8748 12.4342 99.597 11.7109C99.9065 11.5043 100.63 10.7809 100.734 9.85097C100.734 9.74797 100.837 9.64438 100.837 9.43721V9.23063C100.734 9.12763 100.734 9.02404 100.734 9.02404C100.734 9.02404 100.734 8.81746 100.63 8.61087C100.63 8.50729 100.424 7.99112 100.01 7.68095C99.7006 7.47378 99.2868 6.95761 97.7365 6.44086C97.2198 6.23369 96.2904 6.0271 96.2904 6.0271L96.1874 6.23485Z" fill="#9CA3AF"/>
<path fill-rule="evenodd" clip-rule="evenodd" d="M100.837 9.33486C100.837 9.33486 100.837 9.12828 100.734 9.02469C100.734 8.81811 100.63 8.71452 100.527 8.50793C100.334 8.31939 100.161 8.11174 100.01 7.88818C99.8031 7.7846 99.5965 7.57801 99.3905 7.37142C98.357 6.75108 97.1169 6.4415 95.9798 6.23491C94.2241 6.02833 92.1577 6.02833 91.9505 6.02833C91.3308 6.02833 87.0949 6.02833 86.062 6.13133C81.3094 6.23492 75.4191 6.23491 73.8694 6.23491C58.0613 6.23491 51.1392 5.92475 43.4932 4.37507C36.9838 3.13498 33.3677 1.89546 33.3677 1.89546C39.1538 1.68888 72.7329 0.242201 78.8286 0.139201C82.8591 0.0362011 85.6477 -0.0673839 87.9213 0.139201C89.1614 0.139201 90.1949 0.242787 91.538 0.552957C92.7769 0.759541 93.9146 1.06971 94.5337 1.2763C95.8768 1.79305 97.1169 2.51639 97.6337 3.34273C97.6337 3.34273 97.8408 3.44631 98.0463 3.7559C98.2534 4.16965 98.563 4.58282 98.6672 4.68582C99.4935 6.02892 99.9061 6.75225 100.01 7.06242C100.217 7.37259 100.32 7.68277 100.424 7.99235C100.63 8.19894 100.63 8.40552 100.63 8.50852C100.734 8.81869 100.734 9.12886 100.837 9.23186V9.33486Z" fill="#9CA3AF"/>
</g>
<defs>
<clipPath id="clip0_1342_125">
<rect width="100" height="40" fill="white" transform="translate(0.97998 0.0200195)"/>
</clipPath>
</defs>
</svg>
