<svg width="128" height="64" viewBox="0 0 128 64" fill="none" xmlns="http://www.w3.org/2000/svg">
<path d="M88.6672 3.03733C92.7171 -1.01244 99.283 -1.01245 103.333 3.03733L124.963 24.6672C129.013 28.717 129.013 35.2829 124.963 39.3328L103.333 60.9626C99.283 65.0125 92.7171 65.0125 88.6672 60.9626L67.0374 39.3328C62.9875 35.2829 62.9875 28.717 67.0374 24.6672L88.6672 3.03733Z" fill="#047857"/>
<path d="M56.6672 3.03733C60.7171 -1.01244 67.283 -1.01245 71.3328 3.03733L92.9627 24.6672C97.0125 28.717 97.0125 35.2829 92.9627 39.3328L71.3328 60.9626C67.283 65.0125 60.7171 65.0125 56.6672 60.9626L35.0374 39.3328C30.9875 35.2829 30.9875 28.717 35.0374 24.6672L56.6672 3.03733Z" fill="#065F46"/>
<path d="M24.6672 3.03733C28.717 -1.01244 35.2829 -1.01245 39.3328 3.03733L60.9626 24.6672C65.0125 28.717 65.0125 35.2829 60.9626 39.3328L39.3328 60.9626C35.2829 65.0125 28.717 65.0125 24.6672 60.9626L3.03733 39.3328C-1.01244 35.2829 -1.01245 28.717 3.03733 24.6672L24.6672 3.03733Z" fill="#064E3B"/>
</svg>
