<svg width="182" height="28" viewBox="0 0 182 28" fill="none" xmlns="http://www.w3.org/2000/svg">
<g clip-path="url(#clip0_1342_114)">
<path d="M180.568 23.0356V26.2654H180.027V23.7765H179.991L179.094 26.2654H178.627L177.737 23.7765V26.2654H177.187V23.0356H178.003L178.902 25.5658L179.752 23.0356H180.568ZM176.838 23.0356V23.5018H175.788V26.2651H175.247V23.5018H174.198V23.0356H176.838ZM163.275 18.215C164.091 15.575 164.091 14.0185 163.309 13.0035C162.726 12.3041 161.875 11.9544 160.586 11.9544C157.714 11.9544 156.123 13.5865 154.84 17.6731C154.018 20.3542 154.018 21.9106 154.798 22.9191C155.341 23.584 156.238 23.9339 157.521 23.9339C160.352 23.9339 161.992 22.3363 163.275 18.215ZM174.507 12.3041C175.63 13.71 175.871 15.493 175.206 17.6734C173.341 23.7008 166.305 27.1567 155.882 27.1567C149.663 27.1567 145.432 25.9501 143.56 23.6184C142.435 22.2198 142.243 20.3956 142.901 18.215C144.767 12.1877 151.802 8.73174 162.225 8.73174C168.403 8.73174 172.682 9.97288 174.507 12.3041ZM135.632 9.31434H146.673C146.008 10.206 134.001 26.3407 133.802 26.6152H116.858C116.776 26.1076 114.753 9.93845 114.678 9.31434H125.06C125.135 9.82184 126.575 21.4448 126.575 21.4448C126.575 21.4448 135.475 9.54758 135.632 9.31434ZM101.382 18.215C102.198 15.575 102.239 14.0185 101.423 13.0035C100.874 12.3041 99.983 11.9544 98.7415 11.9544C95.8618 11.9544 94.2297 13.5865 92.9883 17.6731C92.1311 20.3542 92.1311 21.9106 92.947 22.9191C93.4888 23.584 94.3873 23.9339 95.6282 23.9339C98.5084 23.9339 100.14 22.3363 101.382 18.215ZM112.655 12.3041C113.786 13.71 114.019 15.493 113.32 17.6734C111.455 23.7008 104.413 27.1567 94.0376 27.1567C87.8183 27.1567 83.5805 25.9501 81.7085 23.6184C80.584 22.2198 80.3509 20.3956 81.0093 18.215C82.9156 12.1877 89.9509 8.73174 100.333 8.73174C106.552 8.73174 110.79 9.97288 112.655 12.3041ZM80.1586 11.4542C80.5838 11.996 80.8171 12.5374 80.7004 13.3191L76.3874 26.6496H64.9566L69.0025 14.2109C69.1532 13.6692 68.9614 13.2028 68.6527 12.8531C68.104 12.188 66.9385 11.7629 62.934 12.037C62.934 12.037 58.1959 26.4576 58.1134 26.6496H46.6892C46.7992 26.341 52.0516 10.2885 52.127 10.1307C56.0976 9.43129 61.343 8.77292 66.7875 8.77292C74.1724 8.77309 78.6775 9.66454 80.1586 11.4542ZM38.4468 15.1091C38.6801 14.0189 38.3304 13.2028 37.9392 12.7365C37.5143 12.188 36.5747 11.4885 34.6343 11.4885C31.8777 11.4885 29.8137 12.812 29.1141 15.0268L27.7564 20.1216L38.4468 15.1091ZM48.0468 15.0678C48.0468 15.8837 47.8548 16.5833 47.6972 16.8918C47.3474 16.9742 27.407 21.4039 27.407 21.4039C27.407 21.4039 27.2078 22.3778 27.9486 22.8849C28.9224 23.5845 29.9715 23.7766 31.7544 23.852C36.1498 24.0441 42.1014 21.4795 43.7682 20.7456C43.5008 21.5959 41.7863 25.3331 41.7109 25.5251C40.9702 25.7993 36.8492 27.1159 28.7645 27.1571C25.6922 27.1982 20.2136 26.8074 17.9576 23.9684C16.8331 22.5698 16.6344 20.5879 17.4091 18.0989C19.2399 12.1536 26.0835 8.73207 36.1086 8.73207C41.7109 8.73207 45.3656 9.78116 47.0388 11.8383C47.6972 12.6954 48.0468 13.7856 48.0468 15.0678ZM9.13252 0.880127H20.4469C20.214 1.61395 12.5957 26.1832 12.4722 26.6152H1.16479C1.3977 25.8746 9.01589 1.30543 9.13252 0.880127Z" fill="#9CA3AF"/>
</g>
<defs>
<clipPath id="clip0_1342_114">
<rect width="181.33" height="26.2797" fill="white" transform="translate(0.330078 0.880127)"/>
</clipPath>
</defs>
</svg>
