<svg width="182" height="32" viewBox="0 0 182 32" fill="none" xmlns="http://www.w3.org/2000/svg">
<g clip-path="url(#clip0_1342_110)">
<path fill-rule="evenodd" clip-rule="evenodd" d="M0 31.2579V0.782227H32.354V31.2579H0ZM51.7129 30.1621L39.7276 1.58905H48.4363L56.0746 19.9517L63.7119 1.58905H72.3077L60.3715 30.1621H51.7129ZM68.1604 30.1728L80.0831 1.55136H89.1717L101.221 30.1728H92.6869L91.1371 26.5309H78.1051L76.6432 30.1728H68.1604ZM101.258 30.1621V1.5388H115.663C120.895 1.5388 125.154 5.48401 125.154 10.7897C125.154 14.3436 123.188 17.7101 119.898 19.1197L129.3 30.1621H119.13L109.06 18.3013V30.1621H101.258ZM134.885 30.1621V9.50364H127.121V1.57649H150.928V9.50364H142.95V30.1621H134.885ZM147.714 30.1728L159.637 1.55136H168.724L180.774 30.1728H172.241L170.691 26.5309H157.646L156.197 30.1728H147.714Z" fill="#9CA3AF"/>
<path fill-rule="evenodd" clip-rule="evenodd" d="M109.06 14.9734H113.446C115.725 14.9608 117.264 13.9782 117.264 11.52C117.264 9.0493 115.725 8.06662 113.446 8.06662L109.06 8.05406V14.9734ZM0.291016 1.08447L15.9695 26.0264L32.0391 1.09703L0.291016 1.08447ZM80.8524 19.852H88.3514L84.6468 10.89L80.8524 19.852ZM160.395 19.852H167.906L164.201 10.89L160.395 19.852Z" fill="white"/>
</g>
<defs>
<clipPath id="clip0_1342_110">
<rect width="181.33" height="30.4756" fill="white" transform="translate(0 0.782227)"/>
</clipPath>
</defs>
</svg>
