<svg width="147" height="41" viewBox="0 0 147 41" fill="none" xmlns="http://www.w3.org/2000/svg">
<g clip-path="url(#clip0_1342_122)">
<path fill-rule="evenodd" clip-rule="evenodd" d="M18.2656 38.5085L17.0335 34.5632L21.4705 16.3218H21.7166L26.6471 38.5085H34.7823L33.7964 34.8102L38.7258 13.3642C39.7117 9.66688 40.4513 6.95545 43.6561 6.46205V3.99777H33.3038V6.46205C34.536 6.7083 37.0012 6.95545 37.0012 9.17439C37.0012 10.6528 36.2615 13.6113 35.769 15.5831L32.5642 30.127H32.317L26.4008 3.75063L18.759 5.72241L20.2383 12.3783L15.8013 29.8799L11.1181 6.70739L13.5824 6.46114V3.99686H1.01025V6.46114L3.22829 6.70739L10.1304 38.5076L18.2656 38.5085ZM49.8195 25.6892C49.5734 24.7024 49.5734 23.9645 49.5734 23.2239C49.5734 21.006 49.8195 16.5681 52.7781 16.5681C55.2433 16.5681 55.9829 18.5399 55.9829 21.7456C55.9829 23.2239 55.2433 23.9637 53.5178 24.4552L49.8195 25.6892ZM60.6662 30.6195C59.434 32.5914 58.201 34.0715 55.7359 34.0715C52.5309 34.0715 51.0517 31.1129 50.3121 28.8949L62.1445 24.7033C61.6511 19.7738 59.6784 14.1038 53.5159 14.1038C46.6138 14.1038 43.1627 20.5134 43.1627 26.6768C43.1627 33.0856 46.3667 39.249 52.7763 39.249C57.7067 39.249 60.4182 36.5376 62.3898 32.3451L60.6662 30.6195ZM65.5965 3.74972V6.2149C66.8287 6.2149 67.8146 6.2149 67.8146 7.44703V36.0433L65.5965 36.2896V38.5076H76.6894V36.2896L74.2243 36.0433V0.791138L65.5965 3.74972ZM79.4008 3.74972V6.2149C80.6338 6.2149 81.6188 6.2149 81.6188 7.44703V36.0433L79.4008 36.2896V38.5076H90.4946V36.2896L88.2766 36.0433V0.791138L79.4008 3.74972ZM99.6148 25.6892V23.2239C99.6148 21.006 99.8609 16.5681 102.82 16.5681C105.285 16.5681 106.024 18.5399 106.024 21.7456C106.024 23.2239 105.038 23.9637 103.313 24.4552L99.6148 25.6892ZM110.708 30.6195C109.228 32.5914 107.997 34.0715 105.532 34.0715C102.573 34.0715 101.095 31.1129 100.355 28.8949L112.187 24.7033C111.693 19.7738 109.475 14.1038 103.313 14.1038C96.6561 14.1038 92.9588 20.5134 92.9588 26.6768C92.9588 33.0856 96.1637 39.249 102.572 39.249C107.503 39.249 110.214 36.5376 112.433 32.3451L110.708 30.6195ZM114.405 19.5258H115.638C118.103 19.5258 118.103 23.9637 118.103 25.9354V36.0424L115.885 36.2887V38.5066H126.977V36.2887L124.759 36.0424V31.112C124.759 24.7015 126.239 21.7447 127.224 21.0051C127.964 21.0051 128.704 21.2514 129.936 21.2514C132.894 21.2514 133.881 19.5249 133.881 17.7994C133.881 15.3351 132.648 14.102 130.429 14.102C126.484 14.102 124.759 19.2786 124.018 21.9901C123.773 19.2795 123.281 16.5681 122.294 14.102L114.405 17.3068V19.5258ZM141.523 15.336C144.48 15.336 146.698 12.8708 146.698 9.91221C146.698 7.20079 144.48 4.73561 141.523 4.73561C138.564 4.73561 136.099 7.20079 136.099 9.91221C136.099 12.8708 138.564 15.336 141.523 15.336ZM141.523 14.1029C139.303 14.1029 137.577 12.3774 137.577 9.91221C137.577 7.69419 139.302 5.96774 141.523 5.96774C143.741 5.96774 145.219 7.69328 145.219 9.91221C145.219 12.3774 143.741 14.1029 141.523 14.1029ZM142.754 10.4056C143.741 10.4056 144.232 9.91312 144.232 8.92723C144.232 7.6951 143.495 7.2017 142.014 7.2017H139.303V12.8717H140.536V10.4056H141.523L142.754 12.8708H143.987L142.754 10.4056ZM140.536 9.66596V7.94043H141.767C142.261 7.94043 143.247 7.94043 143.247 8.68008C143.247 9.41972 142.754 9.66596 142.014 9.66596H140.536Z" fill="#9CA3AF"/>
</g>
<defs>
<clipPath id="clip0_1342_122">
<rect width="146.14" height="39.9962" fill="white" transform="translate(0.590088 0.0219727)"/>
</clipPath>
</defs>
</svg>
